<?xml version="1.0" encoding="UTF-8"?>
<svg xmlns="http://www.w3.org/2000/svg" xmlns:xlink="http://www.w3.org/1999/xlink" width="256px" height="256px" viewBox="0 0 256 256" version="1.1">
<defs>
<linearGradient id="linear0" gradientUnits="userSpaceOnUse" x1="646.570862" y1="684.059753" x2="375.459442" y2="604.755249" gradientTransform="matrix(0.304336,0,0,0.305061,-30.693191,-27.914914)">
<stop offset="0" style="stop-color:rgb(100%,98.823529%,89.803922%);stop-opacity:1;"/>
<stop offset="1" style="stop-color:rgb(100%,100%,100%);stop-opacity:1;"/>
</linearGradient>
</defs>
<g id="surface1">
<path style=" stroke:none;fill-rule:nonzero;fill:rgb(14.509805%,14.117648%,14.509805%);fill-opacity:1;" d="M 236.390625 241.535156 C 235.871094 242.15625 234.769531 243.117188 234.109375 243.621094 C 227.371094 248.742188 219.164062 252.167969 210.832031 253.488281 C 206.457031 254.183594 202.675781 254.019531 198.355469 253.988281 L 186.496094 253.972656 L 131.253906 254.035156 L 72.707031 253.996094 L 57.957031 254.015625 C 53.304688 254.039062 47.546875 254.148438 42.992188 253.511719 C 30.542969 251.777344 18.625 244.660156 11.066406 234.578125 C 6.246094 228.144531 2.726562 220.710938 1.441406 212.722656 C 0.800781 208.746094 0.863281 203.59375 0.859375 199.550781 L 0.839844 186.503906 L 0.917969 135.238281 L 0.863281 77.0625 L 0.785156 57.117188 C 0.796875 52.90625 0.707031 47.945312 1.277344 43.804688 C 3.027344 31.132812 9.46875 19.652344 19.597656 11.8125 C 26.429688 6.523438 35.195312 3.054688 43.675781 1.617188 C 47.539062 0.960938 54.488281 1.050781 58.601562 1.054688 L 76.414062 1.039062 L 140.027344 1.050781 L 185.054688 1.105469 L 199.546875 1.046875 C 202.742188 1.042969 207.597656 0.941406 210.671875 1.46875 C 223.839844 3.734375 235.273438 10.265625 243.300781 20.9375 C 254.574219 35.910156 253.441406 48.492188 253.421875 65.972656 L 253.367188 99.414062 L 253.429688 130.140625 L 253.382812 138.824219 C 253.375 140.015625 253.425781 142.085938 253.332031 143.230469 L 253.367188 150.5 L 253.371094 158.59375 C 253.371094 159.515625 253.328125 162.105469 253.484375 162.902344 L 253.402344 163.132812 L 253.386719 186.089844 L 253.394531 192.621094 C 253.398438 193.488281 253.453125 195.667969 253.351562 196.46875 C 253.363281 198.445312 253.503906 205.988281 253.226562 207.398438 C 253.234375 209.65625 252.78125 212.382812 252.328125 214.578125 C 250.324219 224.328125 245.152344 232.960938 238.132812 239.917969 C 237.628906 240.417969 236.949219 241.101562 236.390625 241.535156 Z M 236.390625 241.535156 "/>
<path style=" stroke:none;fill-rule:nonzero;fill:rgb(61.176473%,61.56863%,62.352943%);fill-opacity:1;" d="M 207.332031 149.265625 C 208.75 142.410156 210.078125 134.328125 210.128906 127.332031 C 210.238281 111.023438 204.777344 93.777344 195.945312 80.171875 C 183.765625 61.421875 163.101562 48.042969 141.363281 43.503906 C 137.695312 42.738281 133.671875 42.429688 129.925781 42.089844 C 128.308594 41.941406 124.789062 42.113281 123.367188 41.714844 C 145.183594 40.890625 167.675781 50.253906 183.457031 64.84375 C 199.722656 79.882812 209.914062 102.800781 210.425781 124.867188 C 210.816406 141.882812 205.800781 160.316406 196.371094 174.546875 C 193.574219 178.773438 190.886719 181.613281 188.046875 185.453125 C 183.449219 190.347656 179.628906 193.953125 174.078125 197.84375 C 173.03125 198.625 170.367188 200.445312 169.261719 200.980469 L 169.140625 200.894531 C 169.871094 200.132812 172.289062 198.738281 173.332031 198.007812 C 190.40625 186.035156 201.402344 169.5625 207.1875 149.558594 Z M 207.332031 149.265625 "/>
<path style=" stroke:none;fill-rule:nonzero;fill:rgb(43.529412%,43.137255%,44.313726%);fill-opacity:1;" d="M 180.414062 33.835938 C 182.949219 35.238281 185.050781 36.988281 187.335938 38.324219 L 187.898438 38.789062 C 195.460938 44.230469 200.226562 48.636719 206.378906 55.476562 L 206.820312 55.953125 C 214.152344 64.71875 220.292969 73.90625 224.5 84.511719 C 225.402344 86.792969 226.886719 89.878906 227.457031 92.253906 C 228.640625 95.679688 229.761719 99.757812 230.71875 103.292969 L 230.875 103.957031 C 231.066406 104.734375 231.464844 106.171875 231.480469 106.914062 L 231.628906 107.164062 C 235.242188 126.628906 234.632812 144.09375 227.996094 162.851562 L 227.945312 163.082031 C 224.480469 172.363281 219.882812 180.808594 214.257812 188.941406 L 213.613281 189.859375 C 207.304688 197.898438 203.160156 204.132812 195.195312 210.707031 L 194.984375 210.925781 C 193.277344 212.5625 190.398438 214.777344 188.523438 216.148438 C 183.804688 219.601562 178.734375 223.101562 173.367188 225.453125 C 172.675781 225.757812 172.511719 226.25 171.847656 226.421875 C 170.988281 226.644531 169.8125 227.242188 169.054688 227.699219 L 168.902344 227.792969 L 168.742188 227.65625 C 169.050781 227.40625 171.558594 226.136719 172.023438 225.898438 C 174.253906 224.753906 176.503906 223.628906 178.664062 222.339844 C 188.160156 216.667969 199.21875 207.976562 206.007812 199.195312 L 206.457031 198.613281 C 212.015625 191.398438 216.453125 185.996094 220.777344 177.808594 L 221.09375 177.257812 C 223.269531 173.515625 225.933594 167.507812 227.460938 163.476562 C 227.476562 163.398438 227.644531 163.023438 227.679688 162.941406 C 227.972656 161.726562 228.574219 160.175781 228.96875 158.953125 C 233.375 145.367188 234.480469 131.277344 232.890625 117.085938 L 232.761719 115.941406 C 232.226562 111.640625 231.636719 107.902344 230.550781 103.691406 C 229.511719 99.671875 228.203125 95.855469 227.082031 91.894531 L 226.855469 91.339844 C 225.957031 88.511719 224.640625 85.769531 223.523438 83.027344 C 219.453125 73.03125 213.1875 63.875 206.160156 55.695312 L 205.601562 55.128906 C 197.921875 46.4375 190.09375 40.292969 180.3125 34.121094 Z M 180.414062 33.835938 "/>
<path style=" stroke:none;fill-rule:nonzero;fill:rgb(61.176473%,61.56863%,62.352943%);fill-opacity:1;" d="M 217.183594 95.640625 C 220.742188 103.8125 222.148438 117.785156 222.582031 126.601562 L 222.589844 126.816406 C 222.679688 131.367188 222.617188 136.019531 221.96875 140.558594 C 219.070312 160.890625 209.582031 180.503906 195.40625 195.339844 C 189.53125 201.488281 181.570312 207.609375 174.488281 212.289062 C 173.019531 213.257812 170.164062 215.054688 168.605469 215.597656 C 169.960938 214.488281 171.859375 213.539062 173.367188 212.582031 C 179.613281 208.621094 185.726562 203.972656 191.207031 198.984375 L 191.574219 198.578125 C 192.328125 198.082031 195.179688 195.085938 195.847656 194.375 C 204.066406 185.574219 211.171875 174.523438 215.597656 163.308594 L 215.789062 162.914062 C 221.234375 148.289062 223.25 136.527344 221.914062 120.976562 C 221.050781 110.929688 220.171875 105.609375 217.058594 96.039062 Z M 217.183594 95.640625 "/>
<path style=" stroke:none;fill-rule:nonzero;fill:rgb(61.176473%,61.56863%,62.352943%);fill-opacity:1;" d="M 216.914062 95.625 C 216.121094 93.8125 215.429688 91.730469 214.609375 89.800781 C 211.023438 81.421875 206.019531 72.511719 200.015625 65.664062 C 181.941406 45.042969 156.347656 31.429688 128.71875 30.679688 C 127.988281 30.660156 123.597656 30.679688 123.324219 30.34375 C 123.667969 30.109375 126.449219 30.203125 127.121094 30.226562 C 137.75 30.589844 148.929688 32.472656 158.867188 36.347656 L 159.574219 36.597656 C 168.527344 40.289062 174.871094 43.671875 182.792969 49.4375 C 184.78125 50.882812 188.140625 54.027344 189.738281 55.078125 C 189.988281 55.308594 190.542969 55.859375 190.808594 55.996094 C 203.285156 67.367188 208.886719 75.917969 215.582031 91.21875 L 215.832031 91.789062 L 217.15625 95.382812 Z M 216.914062 95.625 "/>
<path style=" stroke:none;fill-rule:nonzero;fill:rgb(61.176473%,61.56863%,62.352943%);fill-opacity:1;" d="M 179.921875 33.914062 C 177.746094 32.320312 174.195312 30.53125 171.777344 29.269531 C 157.304688 21.71875 141.449219 17.660156 125.078125 18.289062 C 124.078125 18.324219 119.820312 18.6875 119.199219 18.515625 L 119.289062 18.351562 C 120.851562 17.835938 126.265625 17.949219 128.214844 17.933594 C 146.230469 17.761719 165.15625 23.996094 180.25 33.71875 Z M 179.921875 33.914062 "/>
<path style=" stroke:none;fill-rule:nonzero;fill:rgb(11.372549%,10.980392%,10.980392%);fill-opacity:1;" d="M 170.753906 146.804688 C 172.882812 141.921875 174.34375 134.796875 174.371094 129.53125 C 174.375 128.769531 174.457031 127.449219 174.285156 126.75 C 173.898438 126.671875 173.941406 126.6875 173.558594 126.769531 L 173.617188 126.457031 C 173.980469 126.511719 173.863281 126.515625 174.230469 126.46875 C 174.351562 122.691406 173.601562 118.777344 172.746094 115.097656 C 168.089844 95.039062 148.542969 78.917969 128.15625 77.558594 C 127.386719 77.507812 123.714844 77.558594 123.375 77.277344 C 123.617188 77.074219 123.910156 77.082031 124.253906 77.074219 C 135.382812 76.746094 148.261719 81.667969 156.46875 89.136719 C 156.933594 88.644531 157.296875 88.164062 157.925781 88.050781 C 157.546875 88.550781 157.324219 88.683594 156.933594 89.160156 C 157.007812 89.664062 158.675781 91.046875 159.175781 91.5 C 164.246094 96.125 167.71875 101.359375 170.625 107.53125 C 170.757812 107.449219 170.992188 107.261719 171.132812 107.28125 C 173.023438 107.582031 181.757812 106.742188 182.742188 107.539062 C 188.144531 123.515625 186.949219 140.109375 179.386719 155.070312 C 178.265625 157.289062 176.261719 160.835938 174.683594 162.808594 L 174.414062 163.242188 C 172.238281 163.011719 163.585938 163.308594 162.421875 162.949219 L 162.167969 162.847656 C 161.871094 162.46875 161.96875 161.269531 161.960938 160.703125 C 165.894531 158.734375 165.753906 157.292969 165.609375 153.246094 C 165.503906 150.203125 166.28125 148.71875 163.691406 146.792969 C 164.148438 146.460938 164.617188 145.980469 165.035156 145.582031 C 164.882812 146.523438 163.839844 146.722656 164.554688 147.167969 C 167.015625 148.707031 165.273438 152.628906 165.960938 154.847656 C 167.195312 154.078125 170.078125 148.253906 170.503906 146.816406 Z M 170.753906 146.804688 "/>
<path style=" stroke:none;fill-rule:nonzero;fill:rgb(43.529412%,43.137255%,44.313726%);fill-opacity:1;" d="M 170.753906 146.804688 C 172.882812 141.921875 174.34375 134.796875 174.371094 129.53125 C 174.375 128.769531 174.457031 127.449219 174.285156 126.75 C 173.898438 126.671875 173.941406 126.6875 173.558594 126.769531 L 173.617188 126.457031 C 173.980469 126.511719 173.863281 126.515625 174.230469 126.46875 C 174.351562 122.691406 173.601562 118.777344 172.746094 115.097656 C 168.089844 95.039062 148.542969 78.917969 128.15625 77.558594 C 127.386719 77.507812 123.714844 77.558594 123.375 77.277344 C 123.617188 77.074219 123.910156 77.082031 124.253906 77.074219 C 135.382812 76.746094 148.261719 81.667969 156.46875 89.136719 C 156.933594 88.644531 157.296875 88.164062 157.925781 88.050781 C 157.546875 88.550781 157.324219 88.683594 156.933594 89.160156 C 157.007812 89.664062 158.675781 91.046875 159.175781 91.5 C 164.246094 96.125 167.71875 101.359375 170.625 107.53125 C 176.457031 121.703125 175.828125 135.210938 170.042969 149.261719 L 169.941406 149.144531 C 170.113281 148.097656 170.59375 147.5625 170.753906 146.804688 Z M 170.753906 146.804688 "/>
<path style=" stroke:none;fill-rule:nonzero;fill:rgb(61.176473%,61.56863%,62.352943%);fill-opacity:1;" d="M 48.164062 55.289062 C 57.515625 45.167969 68.128906 36.667969 80.363281 30.179688 C 81.339844 29.660156 84.589844 27.96875 85.402344 27.734375 C 85.226562 28.144531 84.535156 28.5 84.125 28.699219 C 63.332031 38.589844 44.371094 56.269531 33.609375 76.46875 L 34.027344 77.054688 L 33.984375 77.300781 C 33.5625 77.5 33.398438 77.546875 32.964844 77.683594 C 23.609375 95.34375 19.132812 116.171875 20.9375 136.03125 C 21.285156 139.828125 21.753906 145.261719 22.746094 148.941406 L 22.871094 149.738281 C 27.824219 171.976562 38.03125 191.128906 54.257812 207.066406 C 57.832031 210.574219 61.613281 213.925781 65.691406 216.839844 L 66.28125 217.265625 C 71.730469 221.402344 78.734375 224.636719 84.949219 227.421875 C 85.503906 227.667969 86.605469 227.773438 86.988281 228.179688 C 86.648438 228.238281 86.148438 228.078125 85.816406 227.957031 C 68.796875 221.730469 54.679688 209.871094 43.75 195.566406 C 41.660156 192.832031 39.539062 190.253906 37.714844 187.332031 C 35.839844 184.328125 34.222656 181.207031 32.589844 178.074219 L 32.3125 177.414062 C 27.300781 168.628906 23.304688 155.058594 21.652344 145.164062 C 16.949219 116.980469 23.980469 88.296875 40.308594 65.035156 C 40.546875 64.722656 40.800781 64.34375 41.035156 64.015625 C 43.183594 61.492188 45.253906 58.625 47.574219 55.910156 Z M 48.164062 55.289062 "/>
<path style=" stroke:none;fill-rule:nonzero;fill:rgb(61.176473%,61.56863%,62.352943%);fill-opacity:1;" d="M 37.808594 162.105469 C 31.28125 146.480469 30.554688 123.847656 33.742188 107.261719 C 39.605469 76.738281 61.675781 50.835938 89.789062 38.289062 C 90.277344 38.074219 92.644531 37.082031 92.992188 37.101562 C 92.765625 37.503906 89.199219 38.941406 88.558594 39.242188 C 59.605469 52.886719 38.269531 79.308594 33.394531 111.273438 C 29.003906 140.03125 35.871094 167.765625 54.46875 190.214844 C 57.730469 194.15625 61.734375 197.867188 65.558594 201.261719 C 65.839844 200.988281 65.863281 200.921875 65.984375 200.546875 L 66.210938 200.382812 C 66.386719 200.832031 66.382812 201.484375 66.410156 201.988281 C 71.324219 206.191406 77.171875 209.808594 82.722656 213.101562 C 83.449219 213.53125 86.0625 214.6875 86.1875 215.214844 C 84.953125 214.945312 78.339844 210.792969 76.878906 209.910156 L 76.683594 209.777344 C 58.15625 198.046875 46.171875 182.980469 37.9375 162.65625 Z M 37.808594 162.105469 "/>
<path style=" stroke:none;fill-rule:nonzero;fill:rgb(61.176473%,61.56863%,62.352943%);fill-opacity:1;" d="M 180.566406 79.421875 C 177.964844 76.617188 174.863281 73.4375 171.917969 71.085938 C 159.335938 61.050781 143.714844 54.820312 127.550781 54.617188 C 127.039062 54.609375 123.429688 54.578125 123.214844 54.460938 C 123.890625 54.007812 129.878906 54.398438 130.988281 54.464844 C 154.417969 55.902344 177.703125 70.082031 188.875 90.921875 C 188.980469 91.113281 188.917969 91.027344 189.042969 91.171875 C 189.507812 91.332031 190.296875 91.640625 190.757812 91.71875 L 190.667969 92.070312 L 189.484375 92.070312 C 193.273438 100.050781 195.597656 106.046875 196.992188 114.824219 C 198.433594 123.902344 198.816406 131.132812 197.289062 140.242188 C 195.777344 149.292969 193.429688 154.523438 189.511719 162.695312 L 189.269531 163.152344 C 184.285156 172.265625 177.695312 180.640625 169.125 186.5625 C 168.476562 187.011719 167.414062 188.179688 166.730469 188.230469 C 167.890625 186.847656 170.949219 185.007812 172.457031 183.710938 C 203.253906 157.203125 206.171875 110.695312 180.839844 79.71875 Z M 180.566406 79.421875 "/>
<path style=" stroke:none;fill-rule:nonzero;fill:rgb(61.176473%,61.56863%,62.352943%);fill-opacity:1;" d="M 43.410156 124.304688 C 44.789062 95.441406 61.324219 67.609375 86.621094 53.429688 C 88.101562 52.597656 91.34375 50.460938 92.878906 50.171875 L 92.898438 50.304688 C 92.300781 50.847656 91.167969 51.144531 90.371094 51.585938 C 81.292969 56.625 73.347656 62.121094 66.421875 70.023438 L 65.519531 71.058594 C 50.710938 88.441406 42.347656 109.558594 43.945312 132.714844 C 45.46875 154.832031 55.628906 176.683594 72.40625 191.3125 C 77.0625 195.367188 81.546875 198.328125 86.617188 201.773438 C 85.355469 201.457031 82.207031 199.167969 80.996094 198.335938 C 70.949219 191.449219 62.921875 183.402344 56.542969 172.949219 C 47.300781 157.808594 43.332031 142.339844 43.375 124.617188 Z M 43.410156 124.304688 "/>
<path style=" stroke:none;fill-rule:nonzero;fill:rgb(61.176473%,61.56863%,62.352943%);fill-opacity:1;" d="M 182.742188 107.539062 C 175.554688 85.019531 154.300781 68.851562 131.046875 66.28125 C 128.574219 66.007812 125.851562 66.128906 123.351562 66.105469 L 123.269531 65.933594 C 123.726562 65.753906 125.914062 65.796875 126.511719 65.796875 C 134.234375 65.804688 142.035156 67.609375 149.085938 70.75 C 161.832031 76.429688 172.992188 86.230469 179.421875 98.726562 C 180.941406 101.671875 181.734375 103.777344 182.929688 106.84375 L 182.964844 107.074219 C 183.988281 110.523438 185.207031 114.832031 185.738281 118.414062 C 187.742188 131.988281 185.175781 145.101562 178.675781 157.113281 C 175.75 162.519531 171.796875 167.324219 167.722656 171.890625 C 167.308594 172.355469 165.75 174.042969 165.226562 174.246094 C 165.824219 173.40625 166.542969 172.65625 167.25 171.90625 C 169.816406 169.175781 172.210938 166.273438 174.414062 163.242188 L 174.683594 162.808594 C 176.261719 160.835938 178.265625 157.289062 179.386719 155.070312 C 186.949219 140.109375 188.144531 123.515625 182.742188 107.539062 Z M 182.742188 107.539062 "/>
<path style=" stroke:none;fill-rule:nonzero;fill:rgb(61.176473%,61.56863%,62.352943%);fill-opacity:1;" d="M 92.71875 63.683594 L 92.894531 63.753906 C 92.75 64.089844 91.277344 64.863281 90.871094 65.097656 C 83.800781 69.289062 77.78125 74.351562 72.550781 80.730469 C 56.632812 100.125 51.839844 125.304688 59.191406 149.296875 C 63.214844 162.4375 70.265625 172.871094 80.445312 182.082031 C 82.203125 183.675781 84.101562 185.140625 85.933594 186.628906 L 85.796875 186.796875 C 84.917969 186.355469 83.199219 184.769531 82.355469 184.082031 C 42.671875 151.902344 47.742188 88.546875 92.71875 63.683594 Z M 92.71875 63.683594 "/>
<path style=" stroke:none;fill-rule:nonzero;fill:rgb(61.176473%,61.56863%,62.352943%);fill-opacity:1;" d="M 93.425781 77.128906 C 93.351562 77.765625 91.679688 78.636719 91.117188 79.0625 C 63.472656 100.097656 59.847656 139.996094 81.652344 166.59375 C 82.59375 167.742188 86.046875 171.226562 86.441406 172.171875 C 85.316406 171.273438 84.152344 169.988281 83.1875 168.90625 C 63.347656 146.636719 61.53125 112.570312 80.355469 89.089844 C 83.558594 85.09375 88.976562 79.722656 93.425781 77.128906 Z M 93.425781 77.128906 "/>
<path style=" stroke:none;fill-rule:nonzero;fill:rgb(99.215686%,98.039216%,93.333334%);fill-opacity:1;" d="M 99.246094 90.796875 C 99.3125 77.734375 99.804688 64.421875 100.003906 51.328125 L 100.1875 37.542969 C 100.226562 35.050781 100.160156 32 100.472656 29.65625 C 101.230469 25.296875 107.039062 22.980469 110.210938 26.453125 C 112.074219 28.492188 111.664062 31.820312 111.714844 34.5 L 111.851562 44.28125 C 111.90625 47.78125 112.230469 52.738281 112.09375 56 L 112.191406 56.488281 C 112.246094 63.59375 112.542969 71.039062 112.691406 78.1875 L 112.859375 86.324219 C 112.882812 87.496094 112.535156 90.558594 113.710938 91.109375 C 114.785156 91.613281 113.917969 93.136719 114.664062 93.695312 C 116.113281 94.234375 115.933594 95.609375 116.039062 97.152344 C 116.210938 99.613281 116.335938 102.417969 116.714844 104.90625 C 116.839844 105.746094 116.742188 106.835938 117.027344 107.628906 C 117.523438 107.855469 117.265625 107.816406 117.832031 107.722656 C 118.945312 106.316406 117.199219 104.933594 119.292969 103.84375 C 119.960938 99.929688 119.65625 95.570312 120.753906 91.777344 C 121.667969 88.609375 128.324219 88.53125 129.554688 91.109375 C 131.085938 94.308594 130.851562 99.691406 131.292969 103.269531 C 131.898438 103.894531 132.105469 104.082031 132.546875 104.847656 L 132.664062 107.871094 L 134.902344 107.886719 C 135.015625 106.003906 134.746094 104.90625 136.460938 103.8125 C 137.230469 99.5625 137.160156 94.863281 138.191406 90.726562 C 139.003906 87.457031 145.261719 87.222656 146.6875 89.9375 C 148.53125 93.4375 147.894531 99.023438 148.742188 102.8125 C 149.34375 105.488281 150.566406 103.558594 150.132812 107.679688 C 157.027344 107.664062 160.515625 112.699219 160.097656 119.226562 C 163.933594 120.570312 163.933594 124.21875 163.859375 127.59375 C 163.792969 130.691406 164.207031 132.511719 161.835938 134.890625 C 163.878906 136.328125 163.835938 137.972656 163.753906 140.324219 C 163.6875 142.210938 163.871094 144.675781 163.09375 146.398438 C 162.679688 146.796875 162.207031 147.273438 161.753906 147.609375 C 164.34375 149.535156 163.566406 151.019531 163.671875 154.0625 C 163.816406 158.105469 163.957031 159.550781 160.023438 161.519531 C 159.894531 162.511719 159.960938 165.410156 159.960938 166.507812 L 159.976562 175.757812 L 159.96875 207.59375 C 159.972656 210.960938 160.019531 214.332031 160.019531 217.695312 C 160.023438 222.113281 158.417969 225.664062 154.832031 228.269531 C 150.773438 231.214844 145.371094 230.511719 140.570312 230.507812 L 124.496094 230.5 L 109.523438 230.578125 C 106.410156 230.597656 103.011719 230.773438 99.964844 230.339844 C 94.945312 229.628906 90.394531 224.730469 90.1875 219.621094 C 90.074219 216.914062 90.121094 214.117188 90.125 211.386719 L 90.132812 196.140625 L 90.101562 148.304688 L 90.058594 126.984375 C 90.042969 123.894531 90.039062 120.785156 90.042969 117.699219 C 90.046875 113.320312 91.894531 110.894531 95.355469 108.566406 L 95.410156 108.410156 C 95.476562 106.195312 95.8125 104.617188 96.039062 102.371094 C 96.285156 99.9375 96.179688 96.964844 96.683594 94.527344 C 96.769531 94.089844 97.222656 93.957031 97.617188 93.75 C 98.390625 92.242188 97.265625 91.792969 99.246094 90.796875 Z M 99.246094 90.796875 "/>
<path style=" stroke:none;fill-rule:nonzero;fill:rgb(11.372549%,10.980392%,10.980392%);fill-opacity:1;" d="M 97.421875 105.304688 C 103.089844 105.242188 109.136719 105.203125 114.800781 105.289062 L 114.851562 107.863281 C 112.484375 107.875 98.925781 107.578125 97.492188 108.042969 L 97.394531 107.75 Z M 97.421875 105.304688 "/>
<path style=" stroke:none;fill-rule:nonzero;fill:rgb(11.372549%,10.980392%,10.980392%);fill-opacity:1;" d="M 99.027344 109.5625 C 102.636719 109.382812 107.460938 109.546875 111.179688 109.5625 L 130.164062 109.601562 C 136.808594 109.65625 143.441406 109.519531 150.097656 109.601562 C 153.355469 109.640625 156.265625 111.234375 157.601562 114.335938 C 157.972656 115.191406 158.023438 116.363281 158.027344 117.300781 C 158.050781 122.976562 158.019531 128.652344 158.035156 134.328125 L 158.128906 171.519531 L 158.101562 202.378906 C 158.101562 207.683594 158.171875 213 158.109375 218.304688 C 158.058594 222.894531 155.320312 226.457031 151.171875 228.152344 C 148.816406 228.886719 140.949219 228.648438 138.105469 228.648438 L 120.683594 228.640625 L 108.546875 228.640625 C 104.316406 228.636719 99.457031 229.261719 95.980469 226.511719 C 93.667969 224.6875 92.027344 221.714844 92 218.738281 C 91.957031 213.871094 91.976562 209.015625 91.984375 204.15625 L 91.96875 177.96875 L 91.957031 139.183594 C 91.957031 131.992188 91.929688 124.785156 91.960938 117.59375 C 92.015625 116.605469 91.921875 115.546875 92.335938 114.625 C 93.632812 111.761719 95.914062 109.964844 99.027344 109.5625 Z M 99.027344 109.5625 "/>
<path style=" stroke:none;fill-rule:nonzero;fill:url(#linear0);" d="M 99.902344 112.304688 C 101.726562 112.214844 104.15625 112.292969 106.027344 112.296875 L 118.09375 112.320312 L 139.242188 112.3125 C 143.203125 112.308594 148.242188 112.066406 152.207031 112.628906 C 153.707031 112.84375 155.222656 115.15625 155.230469 116.761719 C 155.242188 121.230469 155.203125 125.75 155.183594 130.242188 L 155.121094 157.464844 L 155.140625 200.8125 C 155.132812 206.441406 155.148438 212.078125 155.171875 217.707031 C 155.191406 221.449219 153.597656 224.207031 150.070312 225.628906 C 147.96875 226.167969 141.476562 226.003906 139.011719 225.992188 L 122.972656 225.933594 L 109.265625 225.90625 C 106.664062 225.90625 103.988281 225.945312 101.394531 225.828125 C 100.351562 225.78125 99.824219 225.578125 98.941406 225.089844 C 97.457031 224.261719 95.503906 221.816406 95.300781 220.167969 C 95.039062 218.085938 95.144531 214.976562 95.144531 212.796875 L 95.148438 197.351562 L 95.140625 132.519531 C 95.140625 130.007812 94.835938 116.136719 95.441406 115.238281 C 95.476562 115.183594 95.515625 115.136719 95.550781 115.085938 C 95.71875 114.832031 95.871094 114.574219 96.054688 114.335938 C 97.0625 112.988281 98.308594 112.558594 99.902344 112.304688 Z M 99.902344 112.304688 "/>
<path style=" stroke:none;fill-rule:nonzero;fill:rgb(11.372549%,10.980392%,10.980392%);fill-opacity:1;" d="M 100.15625 113.5 C 103.054688 113.386719 106.332031 113.460938 109.257812 113.472656 L 124.917969 113.515625 C 133.035156 113.527344 141.152344 113.4375 149.265625 113.464844 C 151.4375 113.472656 154.078125 114.492188 154.027344 117.046875 C 153.9375 121.835938 153.910156 126.605469 153.910156 131.394531 L 153.890625 170.664062 L 153.859375 203.230469 C 153.851562 208.105469 153.871094 212.976562 153.867188 217.847656 C 153.859375 221.007812 152.765625 223.292969 149.804688 224.6875 C 148.117188 225.167969 144.132812 224.957031 142.273438 224.945312 L 128.839844 224.882812 L 110.511719 224.90625 C 107.613281 224.910156 104.644531 224.9375 101.746094 224.894531 C 100.71875 224.808594 99.757812 224.488281 98.902344 223.90625 C 95.789062 221.78125 96.199219 218.398438 96.210938 215.140625 C 96.214844 213.347656 96.21875 211.703125 96.222656 209.988281 L 96.21875 189.082031 L 96.15625 137.585938 C 96.167969 130.90625 96.078125 124.203125 96.105469 117.523438 C 96.105469 116.703125 96.277344 115.839844 96.773438 115.167969 C 97.679688 113.941406 98.765625 113.695312 100.15625 113.5 Z M 100.15625 113.5 "/>
<path style=" stroke:none;fill-rule:nonzero;fill:rgb(99.215686%,98.039216%,93.333334%);fill-opacity:1;" d="M 110.40625 121.746094 C 119.816406 121.226562 130.097656 121.933594 139.566406 121.734375 C 143.125 121.972656 145.304688 125.347656 144.945312 128.601562 C 144.253906 134.890625 147.5 144.824219 139.238281 147.121094 C 137.703125 147.382812 135.785156 147.296875 134.210938 147.296875 L 126.339844 147.300781 L 116.875 147.316406 C 113.84375 147.320312 110.347656 147.746094 107.8125 145.863281 C 104.117188 143.183594 104.554688 138.5 104.613281 134.496094 C 104.6875 129.398438 103.351562 122.539062 110.40625 121.746094 Z M 110.40625 121.746094 "/>
<path style=" stroke:none;fill-rule:nonzero;fill:rgb(11.372549%,10.980392%,10.980392%);fill-opacity:1;" d="M 143.675781 141.039062 C 142.84375 144.355469 140.550781 146.277344 137.078125 146.253906 C 128.527344 146.195312 119.761719 146.402344 111.226562 146.195312 C 108.1875 146.121094 105.667969 142.398438 105.75 139.453125 C 105.90625 135.402344 105.476562 131.050781 105.957031 127.042969 C 106.566406 121.976562 112.074219 122.726562 115.628906 122.707031 L 127.292969 122.675781 C 131.484375 122.679688 135.816406 122.589844 139.984375 122.867188 C 141.164062 123.003906 143.089844 124.496094 143.351562 125.652344 C 144.292969 129.785156 143.855469 135.683594 143.828125 139.917969 Z M 143.675781 141.039062 "/>
<path style=" stroke:none;fill-rule:nonzero;fill:rgb(99.215686%,98.039216%,93.333334%);fill-opacity:1;" d="M 122.644531 127.535156 C 125.722656 127.203125 128.589844 127.605469 131.253906 129.246094 C 132.253906 129.859375 134.261719 131.019531 134.125 132.332031 C 133.484375 132.574219 133.300781 132.261719 132.707031 131.648438 C 131.128906 130.023438 128.964844 129.210938 126.78125 128.671875 C 123.0625 128.15625 118.265625 129.027344 115.863281 132.164062 L 115.675781 132.414062 C 115.050781 132.59375 115.324219 132.636719 114.816406 132.386719 C 114.753906 131.84375 115.386719 130.863281 115.769531 130.519531 C 117.703125 128.808594 120.144531 127.867188 122.644531 127.535156 Z M 122.644531 127.535156 "/>
<path style=" stroke:none;fill-rule:nonzero;fill:rgb(99.215686%,98.039216%,93.333334%);fill-opacity:1;" d="M 123.152344 130.742188 C 126.570312 130.3125 129.449219 131.457031 131.960938 133.722656 C 131.648438 134.0625 131.179688 134.441406 130.816406 134.753906 C 129.457031 132.792969 128.199219 132.386719 125.941406 131.921875 C 123.714844 131.761719 121.667969 131.90625 119.675781 133.078125 C 118.933594 133.515625 118.570312 134.054688 117.683594 134.546875 C 117.265625 134.445312 117.46875 134.527344 117.128906 134.140625 C 117.039062 132.316406 121.632812 130.972656 123.152344 130.742188 Z M 123.152344 130.742188 "/>
<path style=" stroke:none;fill-rule:nonzero;fill:rgb(99.215686%,98.039216%,93.333334%);fill-opacity:1;" d="M 123.851562 136.691406 C 124.574219 136.488281 125.351562 136.699219 125.875 137.242188 C 126.394531 137.785156 126.578125 138.574219 126.347656 139.292969 C 126.113281 140.007812 125.507812 140.542969 124.769531 140.675781 C 123.695312 140.875 122.652344 140.191406 122.40625 139.125 C 122.164062 138.054688 122.796875 136.984375 123.851562 136.691406 Z M 123.851562 136.691406 "/>
<path style=" stroke:none;fill-rule:nonzero;fill:rgb(11.372549%,10.980392%,10.980392%);fill-opacity:1;" d="M 123.976562 137.796875 C 124.289062 137.660156 124.652344 137.699219 124.921875 137.898438 C 125.195312 138.101562 125.339844 138.4375 125.296875 138.773438 C 125.257812 139.113281 125.035156 139.402344 124.71875 139.53125 C 124.246094 139.726562 123.703125 139.503906 123.5 139.03125 C 123.300781 138.558594 123.511719 138.011719 123.976562 137.796875 Z M 123.976562 137.796875 "/>
<path style=" stroke:none;fill-rule:nonzero;fill:rgb(99.215686%,98.039216%,93.333334%);fill-opacity:1;" d="M 123.8125 133.785156 C 125.242188 133.6875 128.941406 134.507812 129.242188 136.125 C 128.898438 136.519531 129.105469 136.371094 128.570312 136.539062 C 127.527344 136.335938 126.9375 135.519531 125.710938 135.121094 L 125.519531 135.0625 C 124.574219 134.957031 124.28125 134.921875 123.355469 135.109375 C 122.269531 135.328125 120.683594 136.679688 119.753906 136.347656 C 119.488281 134.8125 122.617188 133.988281 123.8125 133.785156 Z M 123.8125 133.785156 "/>
<path style=" stroke:none;fill-rule:nonzero;fill:rgb(99.215686%,98.039216%,93.333334%);fill-opacity:1;" d="M 99.40625 195.722656 C 99.292969 197.265625 99.382812 199.214844 99.382812 200.796875 C 99.378906 206.859375 99.339844 212.933594 99.425781 218.988281 C 99.480469 222.53125 106.011719 221.480469 108.503906 221.445312 L 119.277344 221.390625 L 137.394531 221.261719 C 140.539062 221.238281 143.761719 221.257812 146.902344 221.148438 C 147.5625 221.128906 149.078125 220.882812 149.519531 220.441406 C 150.234375 219.730469 150.578125 218.734375 150.59375 217.742188 C 150.625 215.386719 150.597656 213.015625 150.589844 210.664062 L 150.542969 197.886719 L 150.550781 161.164062 L 150.421875 135.398438 L 150.414062 126.332031 C 150.410156 124.800781 150.425781 123.253906 150.363281 121.726562 C 150.335938 121.054688 149.816406 120.140625 149.253906 119.8125 C 148.925781 119.625 147.4375 119.445312 147.011719 119.445312 C 133.320312 119.328125 119.582031 119.398438 105.898438 119.371094 C 103.472656 119.363281 101.757812 119.984375 101.738281 122.703125 C 101.683594 130.03125 101.953125 137.402344 101.824219 144.738281 C 101.796875 145.992188 102.195312 147.597656 103.136719 148.464844 C 104.800781 149.960938 108.40625 149.5 110.589844 149.496094 L 120.476562 149.457031 L 135.390625 149.449219 C 149.253906 149.46875 146.894531 150.882812 147.066406 136.332031 C 147.085938 134.359375 146.847656 123.496094 147.507812 122.78125 L 147.847656 122.820312 C 148.195312 123.203125 148.128906 123.683594 148.128906 124.28125 L 148.128906 139.652344 C 148.132812 142.097656 148.273438 144.964844 147.996094 147.363281 C 147.546875 151.28125 142.546875 150.523438 139.816406 150.519531 L 130.574219 150.515625 C 122.660156 150.507812 114.730469 150.550781 106.8125 150.558594 C 104.882812 150.613281 103.199219 150.144531 101.859375 148.625 C 100.308594 146.871094 100.582031 143.570312 100.570312 141.382812 L 100.546875 133.871094 C 100.550781 130.242188 100.527344 126.613281 100.511719 122.992188 C 100.5 120.683594 101.871094 118.460938 104.324219 118.351562 C 106.488281 118.253906 108.667969 118.300781 110.832031 118.308594 L 123.359375 118.328125 L 139.328125 118.316406 C 142.070312 118.3125 144.808594 118.277344 147.554688 118.351562 C 150.050781 118.421875 151.457031 119.605469 151.511719 122.171875 C 151.570312 124.789062 151.550781 127.417969 151.5625 130.039062 L 151.59375 144.882812 L 151.625 183.761719 L 151.71875 207.246094 C 151.738281 210.996094 151.835938 214.839844 151.664062 218.589844 C 151.597656 219.359375 151.070312 220.875 150.363281 221.269531 C 147.476562 222.886719 141.96875 222.347656 138.757812 222.347656 L 123.472656 222.375 L 109.242188 222.441406 C 106.609375 222.460938 103.660156 222.65625 101.054688 222.300781 C 100.003906 222.15625 99.410156 221.742188 98.851562 220.855469 C 98.269531 219.929688 98.375 218.941406 98.3125 217.894531 C 98.296875 212.363281 98.347656 206.816406 98.351562 201.285156 L 98.355469 166.964844 L 98.339844 152.75 C 98.335938 151.527344 98.214844 147.632812 98.398438 146.710938 C 98.753906 146.460938 98.554688 146.554688 99.128906 146.613281 C 99.441406 147.117188 99.300781 149 99.296875 149.742188 L 99.304688 157.597656 C 99.933594 160.53125 99.109375 165.191406 99.496094 168.28125 C 99.519531 168.460938 100.125 168.667969 100.257812 168.71875 L 100.34375 168.984375 L 100.191406 169.117188 L 99.597656 169.015625 C 99.039062 170.132812 99.863281 192.175781 99.40625 195.722656 Z M 99.40625 195.722656 "/>
<path style=" stroke:none;fill-rule:nonzero;fill:rgb(99.215686%,98.039216%,93.333334%);fill-opacity:1;" d="M 136.234375 171.601562 C 138.402344 171.554688 140.832031 171.382812 142.960938 171.757812 C 144.832031 172.085938 144.773438 174.996094 144.691406 176.480469 C 144.578125 178.523438 145.152344 180.929688 142.917969 181.90625 C 140.894531 182.199219 138.226562 182.027344 136.15625 181.90625 C 135.3125 181.398438 135.144531 181.179688 134.589844 180.371094 C 134.535156 178.136719 134.28125 175.324219 134.742188 173.113281 C 134.90625 172.328125 135.570312 171.960938 136.234375 171.601562 Z M 136.234375 171.601562 "/>
<path style=" stroke:none;fill-rule:nonzero;fill:rgb(11.372549%,10.980392%,10.980392%);fill-opacity:1;" d="M 136.960938 172.671875 C 138.050781 172.65625 142.878906 172.21875 143.25 173.46875 C 143.78125 175.261719 143.707031 178.226562 143.332031 180.085938 C 143.246094 180.515625 142.820312 180.710938 142.476562 180.871094 C 141.105469 180.894531 136.898438 181.148438 136.125 180.4375 C 135.320312 179.699219 135.441406 174.390625 135.96875 173.25 C 136.140625 172.878906 136.652344 172.761719 136.960938 172.671875 Z M 136.960938 172.671875 "/>
<path style=" stroke:none;fill-rule:nonzero;fill:rgb(99.215686%,98.039216%,93.333334%);fill-opacity:1;" d="M 121.992188 171.609375 C 124.058594 171.566406 126.539062 171.324219 128.472656 171.847656 C 130.003906 172.265625 129.96875 175.234375 129.914062 176.519531 C 129.820312 178.746094 130.386719 180.941406 128.011719 181.964844 C 126.792969 182.003906 124.988281 181.917969 123.789062 182.003906 C 119.574219 182.300781 119.761719 180.015625 119.746094 176.519531 C 119.734375 174.472656 119.421875 172.160156 121.992188 171.609375 Z M 121.992188 171.609375 "/>
<path style=" stroke:none;fill-rule:nonzero;fill:rgb(11.372549%,10.980392%,10.980392%);fill-opacity:1;" d="M 122.40625 172.675781 C 123.734375 172.652344 127.585938 172.308594 128.441406 173.253906 C 129.011719 174.597656 128.976562 178.5625 128.578125 180.089844 C 128.441406 180.597656 127.996094 180.769531 127.558594 180.941406 C 125.769531 180.820312 123.300781 181.128906 121.714844 180.671875 C 120.46875 179.769531 120.566406 174.554688 121.25 173.214844 C 121.449219 172.832031 122.015625 172.753906 122.40625 172.675781 Z M 122.40625 172.675781 "/>
<path style=" stroke:none;fill-rule:nonzero;fill:rgb(99.215686%,98.039216%,93.333334%);fill-opacity:1;" d="M 126.589844 158.371094 C 130.730469 158.363281 129.859375 161.394531 129.949219 164.476562 C 129.984375 165.703125 129.816406 166.898438 129.171875 167.957031 C 127.558594 168.933594 125.011719 168.660156 123.109375 168.613281 C 120.863281 168.425781 119.761719 167.734375 119.683594 165.183594 C 119.628906 163.347656 119.480469 160.148438 120.78125 158.800781 C 121.394531 158.164062 125.476562 158.375 126.589844 158.371094 Z M 126.589844 158.371094 "/>
<path style=" stroke:none;fill-rule:nonzero;fill:rgb(11.372549%,10.980392%,10.980392%);fill-opacity:1;" d="M 121.523438 159.699219 C 122.695312 159.550781 127.234375 159.421875 128.21875 159.964844 C 129.042969 161.160156 128.660156 164.757812 128.582031 166.21875 C 128.550781 166.832031 128.261719 167.058594 127.816406 167.390625 C 126.4375 167.539062 122.417969 168.023438 121.539062 167.097656 C 120.515625 166.015625 120.492188 160.832031 121.523438 159.699219 Z M 121.523438 159.699219 "/>
<path style=" stroke:none;fill-rule:nonzero;fill:rgb(99.215686%,98.039216%,93.333334%);fill-opacity:1;" d="M 108.519531 171.648438 C 114.277344 171.480469 115.328125 171.007812 115.1875 177.644531 C 115.128906 180.304688 115.054688 181.925781 111.945312 181.933594 C 110.632812 181.917969 106.78125 182.195312 106.054688 181.433594 C 104.796875 180.105469 104.535156 173.851562 106.015625 172.394531 C 106.796875 171.632812 107.570312 171.675781 108.519531 171.648438 Z M 108.519531 171.648438 "/>
<path style=" stroke:none;fill-rule:nonzero;fill:rgb(11.372549%,10.980392%,10.980392%);fill-opacity:1;" d="M 107.726562 172.695312 C 108.660156 172.675781 113.242188 172.265625 113.632812 173.351562 C 114.277344 175.152344 114.167969 178.136719 113.785156 180.023438 C 113.679688 180.546875 113.226562 180.691406 112.820312 180.863281 C 111.398438 180.855469 108.457031 181.09375 107.128906 180.648438 C 106.152344 180.101562 106.148438 177.636719 106.203125 176.738281 C 106.3125 175.121094 105.859375 173.140625 107.726562 172.695312 Z M 107.726562 172.695312 "/>
<path style=" stroke:none;fill-rule:nonzero;fill:rgb(99.215686%,98.039216%,93.333334%);fill-opacity:1;" d="M 138.8125 158.367188 C 144.488281 158.28125 144.628906 158.449219 144.558594 164.496094 C 144.515625 167.9375 144.136719 168.53125 140.660156 168.546875 C 139.367188 168.566406 136.144531 168.761719 135.394531 167.921875 C 134.113281 166.5 134.089844 160.433594 135.472656 158.925781 C 136.046875 158.300781 138.011719 158.382812 138.8125 158.367188 Z M 138.8125 158.367188 "/>
<path style=" stroke:none;fill-rule:nonzero;fill:rgb(11.372549%,10.980392%,10.980392%);fill-opacity:1;" d="M 136.921875 159.578125 C 137.957031 159.539062 142.875 159.164062 143.175781 160.308594 C 143.632812 162.03125 143.664062 165.007812 143.179688 166.773438 C 143.050781 167.234375 142.519531 167.40625 142.132812 167.53125 C 140.824219 167.550781 137.457031 167.707031 136.554688 167.25 C 135.164062 166.546875 135.492188 161.617188 135.929688 160.289062 C 136.09375 159.789062 136.542969 159.714844 136.921875 159.578125 Z M 136.921875 159.578125 "/>
<path style=" stroke:none;fill-rule:nonzero;fill:rgb(99.215686%,98.039216%,93.333334%);fill-opacity:1;" d="M 106.847656 158.488281 C 108.347656 158.394531 112.761719 158.101562 114.148438 158.789062 C 115.265625 159.648438 115.269531 162.003906 115.203125 163.164062 C 115.078125 165.539062 115.683594 167.296875 113.285156 168.429688 C 111.78125 168.714844 108.585938 168.613281 107.074219 168.328125 C 104.960938 167.835938 105.109375 165.195312 105.199219 163.539062 C 105.320312 161.234375 104.476562 159.640625 106.847656 158.488281 Z M 106.847656 158.488281 "/>
<path style=" stroke:none;fill-rule:nonzero;fill:rgb(11.372549%,10.980392%,10.980392%);fill-opacity:1;" d="M 107.761719 159.566406 C 109.25 159.527344 112.003906 159.335938 113.328125 159.738281 C 114.304688 160.5 114.074219 165.539062 113.621094 166.761719 C 113.476562 167.160156 112.992188 167.316406 112.625 167.453125 C 112.003906 167.464844 110.902344 167.453125 110.367188 167.480469 C 106.328125 167.703125 106.136719 166.898438 106.191406 163.101562 C 106.214844 161.585938 105.957031 159.957031 107.761719 159.566406 Z M 107.761719 159.566406 "/>
<path style=" stroke:none;fill-rule:nonzero;fill:rgb(99.215686%,98.039216%,93.333334%);fill-opacity:1;" d="M 105.820312 205.742188 C 114.238281 205.617188 122.984375 205.742188 131.433594 205.75 L 138.910156 205.761719 C 139.839844 205.765625 141.878906 205.703125 142.683594 205.847656 C 142.914062 206.242188 142.808594 206.25 142.726562 206.824219 L 116.347656 206.917969 C 115.046875 206.925781 106.78125 207.027344 106.003906 206.855469 C 105.730469 206.4375 105.832031 206.339844 105.820312 205.742188 Z M 105.820312 205.742188 "/>
<path style=" stroke:none;fill-rule:nonzero;fill:rgb(99.215686%,98.039216%,93.333334%);fill-opacity:1;" d="M 115.890625 194.519531 L 133.984375 194.484375 C 136.578125 194.476562 139.21875 194.492188 141.8125 194.417969 C 142.296875 194.402344 142.488281 194.464844 142.785156 194.746094 L 142.691406 195.191406 C 142.597656 195.28125 142.5 195.375 142.40625 195.464844 C 140.210938 195.597656 134.144531 195.554688 132.410156 195.554688 L 114.398438 195.652344 C 113.070312 195.65625 106.34375 195.851562 105.789062 195.433594 C 105.78125 194.777344 105.65625 194.996094 105.984375 194.632812 C 108.285156 194.402344 113.296875 194.535156 115.890625 194.519531 Z M 115.890625 194.519531 "/>
<path style=" stroke:none;fill-rule:nonzero;fill:rgb(99.215686%,98.039216%,93.333334%);fill-opacity:1;" d="M 131.019531 201.992188 C 134.265625 201.957031 137.546875 201.914062 140.792969 201.917969 C 141.433594 201.917969 142.378906 201.957031 142.835938 202.449219 L 142.769531 202.777344 C 142.039062 203.378906 120.1875 203.164062 117.765625 203.167969 C 116.25 203.175781 106.359375 203.480469 105.652344 202.863281 L 105.707031 202.621094 C 105.925781 202.433594 106.261719 202.183594 106.550781 202.183594 C 108.757812 202.175781 111.171875 202.171875 113.359375 202.152344 Z M 131.019531 201.992188 "/>
<path style=" stroke:none;fill-rule:nonzero;fill:rgb(99.215686%,98.039216%,93.333334%);fill-opacity:1;" d="M 106.148438 198.332031 C 114.515625 198.222656 123.058594 198.320312 131.441406 198.296875 L 138.835938 198.261719 C 139.804688 198.253906 142.40625 198.003906 142.921875 198.660156 C 142.835938 199.113281 142.890625 198.949219 142.617188 199.339844 L 115.269531 199.375 C 112.597656 199.378906 109.027344 199.441406 106.285156 199.324219 C 105.941406 199.3125 105.84375 199.054688 105.722656 198.835938 C 105.871094 198.410156 105.75 198.59375 106.148438 198.332031 Z M 106.148438 198.332031 "/>
<path style=" stroke:none;fill-rule:nonzero;fill:rgb(99.215686%,98.039216%,93.333334%);fill-opacity:1;" d="M 105.773438 209.585938 C 117.394531 209.378906 129.132812 209.789062 140.769531 209.59375 C 141.402344 209.585938 142.367188 209.472656 142.792969 209.917969 L 142.761719 210.671875 C 140.371094 210.746094 106.214844 210.746094 105.789062 210.394531 Z M 105.773438 209.585938 "/>
<path style=" stroke:none;fill-rule:nonzero;fill:rgb(99.215686%,98.039216%,93.333334%);fill-opacity:1;" d="M 133.78125 190.859375 C 135.128906 190.859375 142.019531 190.640625 142.640625 191.066406 C 142.699219 191.585938 142.773438 191.371094 142.511719 191.757812 C 141.871094 191.972656 136.121094 191.863281 135.121094 191.867188 L 114.84375 191.925781 C 113.03125 191.933594 107.609375 192.097656 106.070312 191.945312 C 105.726562 191.582031 105.855469 191.808594 105.863281 191.136719 C 106.457031 190.648438 113.648438 190.90625 115.085938 190.90625 Z M 133.78125 190.859375 "/>
<path style=" stroke:none;fill-rule:nonzero;fill:rgb(16.862746%,16.078432%,16.470589%);fill-opacity:1;" d="M 103.394531 91.0625 C 103.324219 86.171875 103.503906 80.597656 103.550781 75.660156 L 103.894531 45.898438 C 103.949219 42.640625 103.953125 39.425781 103.980469 36.140625 C 104.164062 33.933594 103.386719 30.574219 105.789062 29.375 C 107.136719 28.707031 108.921875 29.761719 109.511719 29.519531 L 109.863281 29.507812 C 110.144531 34.941406 110.027344 40.644531 110.164062 46.109375 L 111 91.054688 Z M 103.394531 91.0625 "/>
<path style=" stroke:none;fill-rule:nonzero;fill:rgb(14.509805%,14.117648%,14.509805%);fill-opacity:1;" d="M 98.695312 95.367188 C 103.109375 95.308594 109.546875 95.1875 113.839844 95.417969 C 113.945312 96.589844 114.566406 103.210938 114.382812 103.972656 L 113.980469 104.109375 C 108.699219 104.128906 103.285156 104.210938 98.011719 104.125 C 98.164062 101.335938 98.425781 98.140625 98.695312 95.367188 Z M 98.695312 95.367188 "/>
<path style=" stroke:none;fill-rule:nonzero;fill:rgb(11.372549%,10.980392%,10.980392%);fill-opacity:1;" d="M 142.09375 90.019531 C 142.875 89.996094 143.824219 90.050781 144.453125 90.574219 C 146.183594 92.003906 146.667969 101.5625 146.796875 104.097656 C 145.675781 104.164062 144.1875 104.125 143.042969 104.128906 C 141.5 104.140625 140.03125 104.144531 138.480469 104.089844 C 138.617188 102.085938 139.664062 92.066406 140.316406 91.015625 C 140.742188 90.328125 141.351562 90.199219 142.09375 90.019531 Z M 142.09375 90.019531 "/>
<path style=" stroke:none;fill-rule:nonzero;fill:rgb(11.372549%,10.980392%,10.980392%);fill-opacity:1;" d="M 124.25 91.390625 C 125.183594 91.316406 126.695312 91.167969 127.449219 91.851562 C 128.851562 93.121094 129.175781 101.8125 129.394531 104.097656 C 128.390625 104.128906 127.316406 104.121094 126.304688 104.132812 L 121.308594 104.132812 C 121.589844 100.914062 122.046875 95.558594 122.734375 92.285156 C 122.820312 91.851562 123.824219 91.535156 124.25 91.390625 Z M 124.25 91.390625 "/>
<path style=" stroke:none;fill-rule:nonzero;fill:rgb(11.372549%,10.980392%,10.980392%);fill-opacity:1;" d="M 109.511719 29.519531 C 109.496094 29.460938 109.480469 29.402344 109.460938 29.34375 C 109.214844 28.5625 108.917969 28.015625 108.171875 27.621094 C 107.375 27.203125 106.28125 27.164062 105.433594 27.445312 C 104.441406 27.777344 103.621094 28.539062 103.1875 29.496094 C 102.539062 30.941406 102.769531 42.710938 102.769531 45.269531 L 102.585938 80.609375 C 102.558594 83.679688 102.511719 87.589844 102.480469 90.753906 C 102.417969 90.839844 102.355469 90.925781 102.292969 91.015625 C 101.792969 91.136719 101.808594 91.105469 101.300781 90.996094 C 100.921875 90.316406 101.335938 72.609375 101.371094 70.898438 L 101.726562 48.054688 L 101.855469 36.289062 C 101.875 34.585938 101.734375 31.222656 102.125 29.703125 C 103.113281 25.902344 109.011719 24.785156 109.863281 29.507812 Z M 109.511719 29.519531 "/>
<path style=" stroke:none;fill-rule:nonzero;fill:rgb(11.372549%,10.980392%,10.980392%);fill-opacity:1;" d="M 137.558594 105.410156 C 140.566406 105.273438 145.082031 105.304688 148.101562 105.402344 C 148.164062 106.027344 148.332031 107.3125 148.058594 107.824219 C 146.742188 107.832031 137.777344 108.015625 137.304688 107.621094 C 137.03125 106.808594 137.257812 106.203125 137.558594 105.410156 Z M 137.558594 105.410156 "/>
<path style=" stroke:none;fill-rule:nonzero;fill:rgb(11.372549%,10.980392%,10.980392%);fill-opacity:1;" d="M 120.359375 105.300781 C 123.4375 105.210938 127.320312 105.195312 130.382812 105.300781 C 130.441406 105.96875 130.644531 107.382812 130.273438 107.867188 L 120.128906 107.84375 C 120.101562 107.050781 119.980469 105.964844 120.359375 105.300781 Z M 120.359375 105.300781 "/>
<path style=" stroke:none;fill-rule:nonzero;fill:rgb(11.372549%,10.980392%,10.980392%);fill-opacity:1;" d="M 100.375 92.3125 L 112.210938 92.28125 C 112.230469 92.949219 112.371094 93.695312 112.046875 94.144531 C 107.996094 94.179688 103.992188 94.15625 99.941406 94.117188 C 100.039062 93.316406 100.113281 93.085938 100.375 92.3125 Z M 100.375 92.3125 "/>
</g>
</svg>
